<?xml version="1.0" standalone="no"?>
<!DOCTYPE svg PUBLIC "-//W3C//DTD SVG 20010904//EN"
 "http://www.w3.org/TR/2001/REC-SVG-20010904/DTD/svg10.dtd">
<svg version="1.0" xmlns="http://www.w3.org/2000/svg"
 width="256.000000pt" height="256.000000pt" viewBox="0 0 256.000000 256.000000"
 preserveAspectRatio="xMidYMid meet">
<metadata>
Created by potrace 1.11, written by Peter Selinger 2001-2013
</metadata>
<g transform="translate(0.000000,256.000000) scale(0.100000,-0.100000)"
fill="#000000" stroke="none">
<path d="M598 2225 c-283 -60 -440 -267 -434 -572 2 -114 28 -208 85 -305 l37
-63 266 -3 265 -2 73 292 c40 161 80 303 88 316 20 31 57 38 98 19 28 -14 36
-25 53 -84 11 -37 65 -228 121 -423 55 -195 104 -364 107 -374 3 -12 38 88 90
260 88 295 98 314 154 314 42 0 61 -24 139 -180 l70 -140 234 0 233 0 46 93
c62 123 80 205 73 327 -3 52 -12 118 -20 147 -44 165 -160 293 -316 351 -73
26 -106 32 -220 37 -139 6 -234 -22 -365 -108 -58 -39 -172 -131 -187 -152 -6
-7 -10 -7 -15 0 -16 21 -130 113 -188 152 -63 42 -107 64 -177 89 -55 20 -233
25 -310 9z"/>
<path d="M997 1340 c-37 -147 -51 -188 -69 -202 -20 -16 -51 -18 -266 -18
l-243 0 123 -119 c68 -65 152 -146 188 -181 36 -34 158 -152 273 -262 257
-249 244 -238 280 -238 24 0 48 18 125 92 53 51 117 113 142 138 26 25 139
133 251 241 112 108 235 227 273 263 l69 66 -204 0 c-158 0 -209 3 -224 14
-11 7 -35 46 -54 85 -19 39 -38 71 -41 71 -3 0 -35 -96 -69 -212 -35 -117 -72
-238 -82 -268 -9 -30 -22 -74 -29 -97 -8 -32 -19 -47 -41 -59 -33 -17 -80 -12
-99 11 -10 12 -101 315 -171 570 -34 123 -47 169 -66 230 l-19 60 -47 -185z"/>
</g>
</svg>
